<mxfile host="app.diagrams.net" modified="2021-12-28T02:41:01.459Z" agent="5.0 (Windows NT 10.0; Win64; x64) AppleWebKit/537.36 (KHTML, like Gecko) Chrome/96.0.4664.110 Safari/537.36" etag="NM6uyJvGKTluWTqVe09i" version="16.1.0" type="github">
  <diagram id="bZ_iqEy7yqK00Oiuly4L" name="Page-1">
    <mxGraphModel dx="1157" dy="1862" grid="1" gridSize="10" guides="1" tooltips="1" connect="1" arrows="1" fold="1" page="1" pageScale="1" pageWidth="827" pageHeight="1169" math="0" shadow="0">
      <root>
        <mxCell id="0" />
        <mxCell id="1" parent="0" />
        <mxCell id="8oVWj-Ed7524KxJHE6_l-5" style="edgeStyle=orthogonalEdgeStyle;rounded=0;orthogonalLoop=1;jettySize=auto;html=1;" edge="1" parent="1" source="8oVWj-Ed7524KxJHE6_l-2" target="8oVWj-Ed7524KxJHE6_l-4">
          <mxGeometry relative="1" as="geometry" />
        </mxCell>
        <mxCell id="8oVWj-Ed7524KxJHE6_l-2" value="API.start()" style="ellipse;whiteSpace=wrap;html=1;" vertex="1" parent="1">
          <mxGeometry x="100" y="-1150" width="120" height="80" as="geometry" />
        </mxCell>
        <mxCell id="8oVWj-Ed7524KxJHE6_l-6" style="edgeStyle=orthogonalEdgeStyle;rounded=0;orthogonalLoop=1;jettySize=auto;html=1;exitX=0.5;exitY=0.5;exitDx=0;exitDy=0;exitPerimeter=0;entryX=1;entryY=0.5;entryDx=0;entryDy=0;" edge="1" parent="1" source="8oVWj-Ed7524KxJHE6_l-3" target="8oVWj-Ed7524KxJHE6_l-4">
          <mxGeometry relative="1" as="geometry" />
        </mxCell>
        <mxCell id="8oVWj-Ed7524KxJHE6_l-3" value="Actor" style="shape=umlActor;verticalLabelPosition=bottom;verticalAlign=top;html=1;outlineConnect=0;" vertex="1" parent="1">
          <mxGeometry x="300" y="-1050" width="30" height="60" as="geometry" />
        </mxCell>
        <mxCell id="8oVWj-Ed7524KxJHE6_l-8" style="edgeStyle=orthogonalEdgeStyle;rounded=0;orthogonalLoop=1;jettySize=auto;html=1;" edge="1" parent="1" source="8oVWj-Ed7524KxJHE6_l-4" target="8oVWj-Ed7524KxJHE6_l-7">
          <mxGeometry relative="1" as="geometry" />
        </mxCell>
        <mxCell id="8oVWj-Ed7524KxJHE6_l-4" value="값 입력" style="rounded=0;whiteSpace=wrap;html=1;" vertex="1" parent="1">
          <mxGeometry x="100" y="-980" width="120" height="60" as="geometry" />
        </mxCell>
        <mxCell id="8oVWj-Ed7524KxJHE6_l-7" value="이동경로 보기&lt;br&gt;페이지로 이동" style="rounded=0;whiteSpace=wrap;html=1;" vertex="1" parent="1">
          <mxGeometry x="100" y="-860" width="120" height="60" as="geometry" />
        </mxCell>
        <mxCell id="8oVWj-Ed7524KxJHE6_l-9" value="상품 Block38" style="rounded=0;whiteSpace=wrap;html=1;" vertex="1" parent="1">
          <mxGeometry x="500" y="-870" width="120" height="60" as="geometry" />
        </mxCell>
        <mxCell id="8oVWj-Ed7524KxJHE6_l-10" value="상품 Block37" style="rounded=0;whiteSpace=wrap;html=1;" vertex="1" parent="1">
          <mxGeometry x="500" y="-940" width="120" height="60" as="geometry" />
        </mxCell>
        <mxCell id="8oVWj-Ed7524KxJHE6_l-11" value="상품 Block36" style="rounded=0;whiteSpace=wrap;html=1;" vertex="1" parent="1">
          <mxGeometry x="500" y="-1010" width="120" height="60" as="geometry" />
        </mxCell>
        <mxCell id="8oVWj-Ed7524KxJHE6_l-12" value="상품 Block35" style="rounded=0;whiteSpace=wrap;html=1;" vertex="1" parent="1">
          <mxGeometry x="500" y="-1080" width="120" height="60" as="geometry" />
        </mxCell>
        <mxCell id="8oVWj-Ed7524KxJHE6_l-13" value="request" style="endArrow=classic;html=1;rounded=0;entryX=0;entryY=0.333;entryDx=0;entryDy=0;exitX=1.022;exitY=0.331;exitDx=0;exitDy=0;exitPerimeter=0;entryPerimeter=0;" edge="1" parent="1" source="8oVWj-Ed7524KxJHE6_l-7" target="8oVWj-Ed7524KxJHE6_l-11">
          <mxGeometry width="50" height="50" relative="1" as="geometry">
            <mxPoint x="220" y="-830" as="sourcePoint" />
            <mxPoint x="270" y="-880" as="targetPoint" />
            <Array as="points">
              <mxPoint x="360" y="-840" />
              <mxPoint x="360" y="-990" />
            </Array>
          </mxGeometry>
        </mxCell>
        <mxCell id="8oVWj-Ed7524KxJHE6_l-17" value="" style="endArrow=none;html=1;rounded=0;exitX=0.5;exitY=0;exitDx=0;exitDy=0;" edge="1" parent="1" source="8oVWj-Ed7524KxJHE6_l-11">
          <mxGeometry width="50" height="50" relative="1" as="geometry">
            <mxPoint x="510" y="-970" as="sourcePoint" />
            <mxPoint x="560" y="-1020" as="targetPoint" />
          </mxGeometry>
        </mxCell>
        <mxCell id="8oVWj-Ed7524KxJHE6_l-19" value="" style="endArrow=none;html=1;rounded=0;" edge="1" parent="1" source="8oVWj-Ed7524KxJHE6_l-12">
          <mxGeometry width="50" height="50" relative="1" as="geometry">
            <mxPoint x="560" y="-1090" as="sourcePoint" />
            <mxPoint x="560" y="-1169" as="targetPoint" />
          </mxGeometry>
        </mxCell>
        <mxCell id="8oVWj-Ed7524KxJHE6_l-20" value="" style="endArrow=none;html=1;rounded=0;exitX=0.5;exitY=0;exitDx=0;exitDy=0;" edge="1" parent="1">
          <mxGeometry width="50" height="50" relative="1" as="geometry">
            <mxPoint x="560" y="-940" as="sourcePoint" />
            <mxPoint x="560" y="-950" as="targetPoint" />
          </mxGeometry>
        </mxCell>
        <mxCell id="8oVWj-Ed7524KxJHE6_l-21" value="" style="endArrow=none;html=1;rounded=0;exitX=0.5;exitY=0;exitDx=0;exitDy=0;" edge="1" parent="1">
          <mxGeometry width="50" height="50" relative="1" as="geometry">
            <mxPoint x="560" y="-870" as="sourcePoint" />
            <mxPoint x="560" y="-880" as="targetPoint" />
          </mxGeometry>
        </mxCell>
        <mxCell id="8oVWj-Ed7524KxJHE6_l-22" value="상품 Block39" style="rounded=0;whiteSpace=wrap;html=1;" vertex="1" parent="1">
          <mxGeometry x="500" y="-800" width="120" height="60" as="geometry" />
        </mxCell>
        <mxCell id="8oVWj-Ed7524KxJHE6_l-23" value="" style="endArrow=none;html=1;rounded=0;exitX=0.5;exitY=0;exitDx=0;exitDy=0;" edge="1" parent="1">
          <mxGeometry width="50" height="50" relative="1" as="geometry">
            <mxPoint x="560" y="-800" as="sourcePoint" />
            <mxPoint x="560" y="-810" as="targetPoint" />
          </mxGeometry>
        </mxCell>
        <mxCell id="8oVWj-Ed7524KxJHE6_l-24" value="" style="endArrow=none;html=1;rounded=0;" edge="1" parent="1">
          <mxGeometry width="50" height="50" relative="1" as="geometry">
            <mxPoint x="560" y="-680" as="sourcePoint" />
            <mxPoint x="560" y="-740" as="targetPoint" />
          </mxGeometry>
        </mxCell>
        <mxCell id="8oVWj-Ed7524KxJHE6_l-25" value="" style="endArrow=classic;html=1;rounded=0;entryX=1;entryY=0.75;entryDx=0;entryDy=0;exitX=0;exitY=0.75;exitDx=0;exitDy=0;" edge="1" parent="1" source="8oVWj-Ed7524KxJHE6_l-11" target="8oVWj-Ed7524KxJHE6_l-7">
          <mxGeometry width="50" height="50" relative="1" as="geometry">
            <mxPoint x="440" y="-960" as="sourcePoint" />
            <mxPoint x="510" y="-980" as="targetPoint" />
            <Array as="points">
              <mxPoint x="440" y="-965" />
              <mxPoint x="440" y="-815" />
            </Array>
          </mxGeometry>
        </mxCell>
        <mxCell id="8oVWj-Ed7524KxJHE6_l-26" value="response" style="edgeLabel;html=1;align=center;verticalAlign=middle;resizable=0;points=[];" vertex="1" connectable="0" parent="8oVWj-Ed7524KxJHE6_l-25">
          <mxGeometry x="-0.1821" y="1" relative="1" as="geometry">
            <mxPoint as="offset" />
          </mxGeometry>
        </mxCell>
        <mxCell id="8oVWj-Ed7524KxJHE6_l-29" style="edgeStyle=orthogonalEdgeStyle;rounded=0;orthogonalLoop=1;jettySize=auto;html=1;" edge="1" parent="1">
          <mxGeometry relative="1" as="geometry">
            <mxPoint x="159.5199999999999" y="-800" as="sourcePoint" />
            <mxPoint x="159.5199999999999" y="-740" as="targetPoint" />
          </mxGeometry>
        </mxCell>
        <mxCell id="8oVWj-Ed7524KxJHE6_l-30" value="exit(0)" style="ellipse;whiteSpace=wrap;html=1;" vertex="1" parent="1">
          <mxGeometry x="100" y="-740" width="120" height="80" as="geometry" />
        </mxCell>
      </root>
    </mxGraphModel>
  </diagram>
</mxfile>
